<svg viewBox="50 50 400 400" xmlns="http://www.w3.org/2000/svg"><g><path class="st0" d="M612.3 920.8c-2.9 0-5.8-1.3-7.7-3.9l-26.5-35.7V747.4l92.1-16.4c11.3-8.1 71.1-49.2 151.1-75.3 51.5-16.8 100.7-23.9 146.1-20.9 57.2 3.8 108.5 23.5 152.5 58.5 4.2 3.3 4.8 9.4 1.5 13.5-3.3 4.2-9.4 4.8-13.5 1.5-74.3-59.3-168.5-70.9-280.2-34.6-84.4 27.5-147.3 73.5-148 74l-1.8 1.3-2.2.4-78.4 13.9v111.4l22.7 30.6c3.2 4.3 2.3 10.3-2 13.5-1.7 1.4-3.7 2-5.7 2z" style="fill:#1c64f2" transform="matrix(.42863 0 0 .42412 -181.13 -91.93)"/><path class="st0" d="M1412.3 933.4c-5.3 0-9.6-4.3-9.6-9.6v-77.6c0-16.5-7.2-31.7-19.7-41.9-51.6-41.8-171.3-39.2-172.5-39.2H935.9c-5.3 0-9.6-4.3-9.6-9.6s4.3-9.6 9.6-9.6h274.2c6.8-.2 128.3-2.5 185 43.5 17 13.8 26.8 34.5 26.8 56.8v77.6c0 5.3-4.3 9.6-9.6 9.6z" style="fill:#1c64f2" transform="matrix(.42863 0 0 .42412 -181.13 -91.93)"/><path class="st0" d="M1343.9 948.3h-69.4l-13.4-24.5 13.4-24.5h69.4c3.6 0 6.9-2 8.6-5.2 1.7-3.2 1.3-7.1-.8-10l-24.6-34.1c-1.8-2.5-4.7-4-7.8-4h-87c-3.5 0-6.7 1.9-8.4 5l-9.7 17.6h-361l10.5 19.2h361.9l12.4-22.6h76.4l10.7 14.9h-56.4c-3.5 0-6.7 1.9-8.4 5l-18.7 34.1c-1.6 2.9-1.6 6.4 0 9.2l18.7 34.1c1.7 3.1 4.9 5 8.4 5h56.4l-10.7 14.9H1238l-12.4-22.6h-21.9l10.5 19.2 9.7 17.6c1.7 3.1 4.9 5 8.4 5h87c3.1 0 6-1.5 7.8-4l24.6-34.1c2.1-2.9 2.4-6.8.8-10-1.7-3.2-5-5.2-8.6-5.2zm-546 11.5-12.4 22.6H709l-10.7-14.9h56.4c3.5 0 6.7-1.9 8.4-5l18.7-34.1c1.6-2.9 1.6-6.4 0-9.2L763.1 885c-1.7-3.1-4.9-5-8.4-5h-56.4l10.7-14.9h76.4l12.4 22.6h21.9l-10.5-19.2-9.7-17.6c-1.7-3.1-4.9-5-8.4-5h-87c-3.1 0-6 1.5-7.8 4L671.8 884c-2.1 2.9-2.4 6.8-.8 10 1.7 3.2 5 5.2 8.6 5.2H749l13.4 24.5-13.4 24.6h-69.5c-3.6 0-6.9 2-8.6 5.2-1.6 3.2-1.3 7.1.8 10l24.6 34.1c1.8 2.5 4.7 4 7.8 4h87c3.5 0 6.7-1.9 8.4-5l9.7-17.6h361l-10.5-19.2H797.9z" style="fill:#1c64f2" transform="matrix(.42863 0 0 .42412 -181.13 -91.93)"/></g></svg>