<svg xmlns="http://www.w3.org/2000/svg" width="32" height="32" viewBox="0 0 8.467 8.467" id="fish"><g transform="translate(-166.257 -297.144) scale(.26458)"><path fill="#444166" style="line-height:normal;font-variant-ligatures:normal;font-variant-position:normal;font-variant-caps:normal;font-variant-numeric:normal;font-variant-alternates:normal;font-feature-settings:normal;text-indent:0;text-align:start;text-decoration-line:none;text-decoration-style:solid;text-decoration-color:#000;text-transform:none;text-orientation:mixed;shape-padding:0;isolation:auto;mix-blend-mode:normal" d="M634.37442 1125.0639a.50005.50005 0 0 0-.49219.5078v.4864a.50005.50005 0 1 0 1 0v-.4864a.50005.50005 0 0 0-.50781-.5078zM634.37442 1127.5639a.50005.50005 0 0 0-.49219.5078v.4864a.50005.50005 0 1 0 1 0v-.4864a.50005.50005 0 0 0-.50781-.5078zM635.38809 1126.5639a.50005.50005 0 1 0 0 1h.48633a.50005.50005 0 1 0 0-1zM632.88809 1126.5639a.50005.50005 0 1 0 0 1h.48633a.50005.50005 0 1 0 0-1z" color="#000" font-family="sans-serif" font-weight="400" overflow="visible"></path><path fill="#444166" d="m 631.37442,1130.0648 a 0.5,0.5 0 0 1 -0.5,0.5 0.5,0.5 0 0 1 -0.5,-0.5 0.5,0.5 0 0 1 0.5,-0.5 0.5,0.5 0 0 1 0.5,0.5 z"></path><path fill="#444166" style="line-height:normal;font-variant-ligatures:normal;font-variant-position:normal;font-variant-caps:normal;font-variant-numeric:normal;font-variant-alternates:normal;font-feature-settings:normal;text-indent:0;text-align:start;text-decoration-line:none;text-decoration-style:solid;text-decoration-color:#000;text-transform:none;text-orientation:mixed;shape-padding:0;isolation:auto;mix-blend-mode:normal" d="M654.37442 1153.0653a.50005.50005 0 0 0 .49219-.5078v-.4864a.50005.50005 0 1 0-1 0v.4864a.50005.50005 0 0 0 .50781.5078zM654.37442 1150.5653a.50005.50005 0 0 0 .49219-.5078v-.4864a.50005.50005 0 1 0-1 0v.4864a.50005.50005 0 0 0 .50781.5078zM653.36075 1151.5653a.50005.50005 0 1 0 0-1h-.48633a.50005.50005 0 1 0 0 1zM655.86075 1151.5653a.50005.50005 0 1 0 0-1h-.48633a.50005.50005 0 1 0 0 1z" color="#000" font-family="sans-serif" font-weight="400" overflow="visible"></path><path fill="#444166" d="m 657.37442,1148.0644 a 0.5,0.5 0 0 1 0.5,-0.5 0.5,0.5 0 0 1 0.5,0.5 0.5,0.5 0 0 1 -0.5,0.5 0.5,0.5 0 0 1 -0.5,-0.5 z"></path><path fill="#484666" d="m 645.87392,1144.5642 a 0.5,0.5 0 0 1 0.5,-0.5 0.5,0.5 0 0 1 0.5,0.5 0.5,0.5 0 0 1 -0.5,0.5 0.5,0.5 0 0 1 -0.5,-0.5 z"></path><path fill="#95cedb" d="m 640.01177,1153.6713 c -0.16672,0.1766 -0.37079,0.3142 -0.60077,0.3936 l -0.80657,-2.3182 -0.0556,-0.046 c -1.40774,-0.4014 -2.71657,-1.0867 -3.8445,-2.0128 -4.51567,-3.7232 -5.13069,-10.3693 -1.37393,-14.8444 3.05496,-3.6392 8.1894,-4.8032 12.54314,-2.8556 -0.46285,5.5609 -4.11544,8.0799 -8.36119,9.9601 -2.84929,1.2618 -1.67563,5.9312 0.73276,7.9171 0.28246,0.2329 0.58955,0.4348 0.9135,0.6068 l 2.42503,-0.8286 c 0.25955,0.7514 -0.56047,1.7193 -0.90068,1.8285 -0.34023,0.1096 -0.38625,0.2711 -0.38625,0.2711 0,0 -0.121,0.243 0.0137,0.4892 0.11081,0.2028 0.10332,0.7421 -0.0572,1.0812 -0.0615,0.1307 -0.14415,0.2507 -0.24256,0.357 z"></path><path fill="#444166" d="m 642.87442,1133.5649 a 0.5,0.5 0 0 1 -0.5,0.5 0.5,0.5 0 0 1 -0.5,-0.5 0.5,0.5 0 0 1 0.5,-0.5 0.5,0.5 0 0 1 0.5,0.5 z"></path><path fill="#444166" d="m 642.55411,1130.603 c -3.58381,-0.3385 -7.20849,1.0602 -9.60742,3.918 -3.93079,4.6824 -3.28436,11.6579 1.43945,15.5527 1.11406,0.9147 2.41829,1.5603 3.79687,1.9883 l 0.75586,2.1679 a 0.50004997,0.50004997 0 0 0 0.63477,0.3067 c 0.31218,-0.1078 0.58325,-0.2911 0.80078,-0.5215 a 0.50004997,0.50004997 0 0 0 0.004,-0.01 0.50004997,0.50004997 0 0 0 0.0859,-0.1269 c 0.0889,-0.1122 0.17967,-0.2225 0.24219,-0.3555 h -0.002 c 0.12284,-0.2595 0.16746,-0.528 0.17773,-0.7851 0.0103,-0.2572 0.0143,-0.4808 -0.13281,-0.75 -0.002,0 -10e-4,0 -0.002,-0.01 0.008,-0.01 0.008,-0.014 0.0879,-0.039 v 0 c 0.23405,-0.075 0.36517,-0.1969 0.51758,-0.3457 0.1524,-0.1488 0.30155,-0.3316 0.43164,-0.543 0.26017,-0.4228 0.47594,-0.9881 0.27148,-1.5801 a 0.50004997,0.50004997 0 0 0 -0.63476,-0.3105 l -2.19336,0.752 c -0.23143,-0.1344 -0.46024,-0.2734 -0.66407,-0.4415 -1.08654,-0.8959 -1.94376,-2.4783 -2.16211,-3.9199 -0.10917,-0.7207 -0.0612,-1.399 0.15039,-1.9394 0.21161,-0.5405 0.56581,-0.9508 1.16211,-1.2149 2.14993,-0.9521 4.18565,-2.0779 5.75782,-3.7109 1.57216,-1.6331 2.66046,-3.7835 2.90039,-6.666 a 0.50004997,0.50004997 0 0 0 -0.29492,-0.4981 c -1.13883,-0.5094 -2.32884,-0.8149 -3.52344,-0.9277 z m -0.0957,0.9941 c 0.95504,0.09 1.89784,0.3763 2.81836,0.7442 -0.2894,2.4429 -1.17538,4.2578 -2.52539,5.6601 -1.43129,1.4867 -3.34559,2.5621 -5.44141,3.4903 -0.82834,0.3668 -1.39502,1.0116 -1.68945,1.7636 -0.29444,0.752 -0.33616,1.6026 -0.20703,2.4551 0.25826,1.7051 1.19183,3.4511 2.51367,4.541 0.31027,0.2559 0.64459,0.4755 0.99609,0.6621 a 0.50004997,0.50004997 0 0 0 0.39649,0.031 l 1.65039,-0.5645 c -0.0265,0.059 -8e-4,0.097 -0.0371,0.1563 -0.085,0.1381 -0.19038,0.2647 -0.2793,0.3515 -0.0889,0.087 -0.187,0.128 -0.12305,0.1075 a 0.50004997,0.50004997 0 0 0 -0.002,0 c -0.23207,0.075 -0.40262,0.1818 -0.51953,0.2988 -0.0585,0.059 -0.10374,0.1195 -0.13476,0.1738 -0.0133,0.023 -0.0151,0.033 -0.0254,0.059 -0.004,0.01 -0.23606,0.4709 0.0234,0.9453 -0.0363,-0.066 0.0176,0.081 0.0117,0.2285 -0.006,0.148 -0.0443,0.3189 -0.082,0.3985 a 0.50004997,0.50004997 0 0 0 -0.002,0 c -0.0313,0.067 -0.0786,0.1272 -0.12891,0.1875 l -0.59375,-1.707 a 0.50004997,0.50004997 0 0 0 -0.1543,-0.2207 l -0.0566,-0.045 a 0.50004997,0.50004997 0 0 0 -0.18164,-0.096 c -1.34145,-0.3825 -2.5876,-1.0361 -3.66211,-1.918 -4.30752,-3.5516 -4.89134,-9.8689 -1.30859,-14.1367 2.1835,-2.6011 5.47995,-3.8772 8.74414,-3.5684 z" color="#000" font-family="sans-serif" font-weight="400" overflow="visible" style="line-height:normal;font-variant-ligatures:normal;font-variant-position:normal;font-variant-caps:normal;font-variant-numeric:normal;font-variant-alternates:normal;font-feature-settings:normal;text-indent:0;text-align:start;text-decoration-line:none;text-decoration-style:solid;text-decoration-color:#000;text-transform:none;text-orientation:mixed;shape-padding:0;isolation:auto;mix-blend-mode:normal"></path><path fill="#3b3c3d" d="m 641.23438,1131.5535 c -2.84758,0.073 -5.60897,1.3334 -7.51954,3.6094 -3.58275,4.2678 -2.99893,10.5851 1.3086,14.1367 0.66255,0.5438 1.3967,0.9875 2.17187,1.3477 -0.60291,-0.3184 -1.17426,-0.6949 -1.70312,-1.1289 -4.30753,-3.5516 -4.89135,-9.869 -1.3086,-14.1368 1.91057,-2.276 4.67196,-3.5363 7.51953,-3.6093 v 0 c 0.4068,-0.01 0.81659,0 1.22461,0.041 0.79215,0.075 1.57224,0.3027 2.3418,0.582 0.002,-0.019 0.006,-0.037 0.008,-0.057 -0.92051,-0.3679 -1.86331,-0.6541 -2.81836,-0.7441 v 0 c -0.40802,-0.039 -0.81781,-0.051 -1.2246,-0.041 z m -0.26368,18.8262 -1.65039,0.5644 a 0.50004997,0.50004997 0 0 1 -0.20117,0.025 c 0.091,0.054 0.1799,0.1125 0.27344,0.1621 a 0.50004997,0.50004997 0 0 0 0.39648,0.031 l 0.88672,-0.3027 c 0.0842,-0.086 0.1794,-0.1968 0.25781,-0.3242 0.0363,-0.059 0.0106,-0.097 0.0371,-0.1563 z m -2.04687,0.9785 a 0.50004997,0.50004997 0 0 1 0.15429,0.2207 l 0.59376,1.707 c 0.0503,-0.06 0.0976,-0.1205 0.1289,-0.1875 a 0.50004997,0.50004997 0 0 0 0.002,0 c 0.0336,-0.071 0.0611,-0.2202 0.0723,-0.3554 l -0.32812,-0.9453 a 0.50004997,0.50004997 0 0 0 -0.1543,-0.2208 l -0.0566,-0.045 a 0.50004997,0.50004997 0 0 0 -0.18164,-0.096 c -0.0783,-0.022 -0.15286,-0.054 -0.23047,-0.078 z" opacity=".15"></path><path fill="#444166" d="m 637.32169,1131.5405 a 0.50005,0.50005 0 0 0 -0.47461,0.4746 c -0.1759,2.7067 1.6117,5.1587 4.24218,5.8203 a 0.50005,0.50005 0 1 0 0.24414,-0.9687 c -2.16869,-0.5455 -3.63329,-2.5556 -3.48828,-4.7871 a 0.50005,0.50005 0 0 0 -0.52343,-0.5391 z" color="#000" font-family="sans-serif" font-weight="400" overflow="visible" style="line-height:normal;font-variant-ligatures:normal;font-variant-position:normal;font-variant-caps:normal;font-variant-numeric:normal;font-variant-alternates:normal;font-feature-settings:normal;text-indent:0;text-align:start;text-decoration-line:none;text-decoration-style:solid;text-decoration-color:#000;text-transform:none;text-orientation:mixed;shape-padding:0;isolation:auto;mix-blend-mode:normal"></path><path fill="#444166" d="M635.87442 1136.0648a.5.5 0 0 1-.5.5.5.5 0 0 1-.5-.5.5.5 0 0 1 .5-.5.5.5 0 0 1 .5.5zM637.12442 1138.0648a.5.5 0 0 1-.5.5.5.5 0 0 1-.5-.5.5.5 0 0 1 .5-.5.5.5 0 0 1 .5.5zM639.37442 1139.0648a.5.5 0 0 1-.5.5.5.5 0 0 1-.5-.5.5.5 0 0 1 .5-.5.5.5 0 0 1 .5.5zM634.87527 1137.9198a.5.5 0 0 1-.5.5.5.5 0 0 1-.5-.5.5.5 0 0 1 .5-.5.5.5 0 0 1 .5.5zM637.37442 1140.0648a.5.5 0 0 1-.5.5.5.5 0 0 1-.5-.5.5.5 0 0 1 .5-.5.5.5 0 0 1 .5.5z"></path><path fill="#fff" d="m 644.91406,111.85547 c -0.2975,2.40943 -1.17787,4.20614 -2.51562,5.5957 -1.43129,1.4867 -3.34559,2.56204 -5.44141,3.49024 -0.82834,0.3668 -1.39502,1.01167 -1.68945,1.76367 -0.29443,0.752 -0.33616,1.60258 -0.20703,2.45508 0.25826,1.7051 1.19183,3.45111 2.51367,4.54101 0.31027,0.2559 0.64459,0.47551 0.99609,0.66211 a 0.50004997,0.50004997 0 0 0 0.10938,0.043 c -0.2615,-0.15438 -0.51538,-0.32246 -0.75196,-0.51758 -1.32184,-1.0899 -2.25541,-2.83591 -2.51367,-4.54101 -0.12913,-0.8525 -0.0874,-1.70308 0.20703,-2.45508 0.29443,-0.752 0.86112,-1.39687 1.68946,-1.76367 2.09582,-0.9282 4.01011,-2.00354 5.4414,-3.49024 1.35001,-1.4023 2.23599,-3.21725 2.52539,-5.66015 -0.11963,-0.0478 -0.24291,-0.0782 -0.36328,-0.12305 z" opacity=".15" transform="translate(0 1020.362)"></path><g transform="translate(-17.215 21.987)"><path fill="#95bfc4" d="m 665.95207,1102.4705 c 0.16672,-0.1766 0.37079,-0.3142 0.60077,-0.3936 l 0.80657,2.3182 0.0556,0.046 c 1.40774,0.4014 2.71657,1.0867 3.8445,2.0128 4.51567,3.7232 5.13069,10.3693 1.37393,14.8444 -3.05496,3.6392 -8.1894,4.8032 -12.54314,2.8556 0.46285,-5.5609 4.11544,-8.0799 8.36119,-9.9601 2.84929,-1.2618 1.67563,-5.9312 -0.73276,-7.9171 -0.28246,-0.2329 -0.58955,-0.4348 -0.9135,-0.6068 l -2.42503,0.8286 c -0.25955,-0.7514 0.56047,-1.7193 0.90068,-1.8285 0.34023,-0.1096 0.38625,-0.2711 0.38625,-0.2711 0,0 0.121,-0.243 -0.0137,-0.4892 -0.11081,-0.2028 -0.10332,-0.7421 0.0572,-1.0812 0.0615,-0.1307 0.14415,-0.2507 0.24256,-0.357 z"></path><path fill="#444166" d="m 663.08942,1122.5769 a 0.5,0.5 0 0 1 0.5,-0.5 0.5,0.5 0 0 1 0.5,0.5 0.5,0.5 0 0 1 -0.5,0.5 0.5,0.5 0 0 1 -0.5,-0.5 z"></path><path fill="#444166" style="line-height:normal;font-variant-ligatures:normal;font-variant-position:normal;font-variant-caps:normal;font-variant-numeric:normal;font-variant-alternates:normal;font-feature-settings:normal;text-indent:0;text-align:start;text-decoration-line:none;text-decoration-style:solid;text-decoration-color:#000;text-transform:none;text-orientation:mixed;shape-padding:0;isolation:auto;mix-blend-mode:normal" d="m 663.40973,1125.5388 c 3.58381,0.3385 7.20849,-1.0602 9.60742,-3.918 3.93079,-4.6824 3.28436,-11.6579 -1.43945,-15.5527 -1.11406,-0.9147 -2.41829,-1.5603 -3.79687,-1.9883 l -0.75586,-2.1679 a 0.50004997,0.50004997 0 0 0 -0.63477,-0.3067 c -0.31218,0.1078 -0.58325,0.2911 -0.80078,0.5215 a 0.50004997,0.50004997 0 0 0 -0.004,0.01 0.50004997,0.50004997 0 0 0 -0.0859,0.1269 c -0.0889,0.1122 -0.17967,0.2225 -0.24219,0.3555 h 0.002 c -0.12284,0.2595 -0.16746,0.528 -0.17773,0.7851 -0.0103,0.2572 -0.0143,0.4808 0.13281,0.75 0.002,0 10e-4,0 0.002,0.01 -0.008,0.01 -0.008,0.014 -0.0879,0.039 v 0 c -0.23405,0.075 -0.36517,0.1969 -0.51758,0.3457 -0.1524,0.1488 -0.30155,0.3316 -0.43164,0.543 -0.26017,0.4228 -0.47594,0.9881 -0.27148,1.5801 a 0.50004997,0.50004997 0 0 0 0.63476,0.3105 l 2.19336,-0.752 c 0.23143,0.1344 0.46024,0.2734 0.66407,0.4415 1.08654,0.8959 1.94376,2.4783 2.16211,3.9199 0.10917,0.7207 0.0612,1.399 -0.15039,1.9394 -0.21161,0.5405 -0.56581,0.9508 -1.16211,1.2149 -2.14993,0.9521 -4.18565,2.0779 -5.75782,3.7109 -1.57216,1.6331 -2.66046,3.7835 -2.90039,6.666 a 0.50004997,0.50004997 0 0 0 0.29492,0.4981 c 1.13883,0.5094 2.32884,0.8149 3.52344,0.9277 z m 0.0957,-0.9941 c -0.95504,-0.09 -1.89784,-0.3763 -2.81836,-0.7442 0.2894,-2.4429 1.17538,-4.2578 2.52539,-5.6601 1.43129,-1.4867 3.34559,-2.5621 5.44141,-3.4903 0.82834,-0.3668 1.39502,-1.0116 1.68945,-1.7636 0.29444,-0.752 0.33616,-1.6026 0.20703,-2.4551 -0.25826,-1.7051 -1.19183,-3.4511 -2.51367,-4.541 -0.31027,-0.2559 -0.64459,-0.4755 -0.99609,-0.6621 a 0.50004997,0.50004997 0 0 0 -0.39649,-0.031 l -1.65039,0.5645 c 0.0265,-0.059 8e-4,-0.097 0.0371,-0.1563 0.085,-0.1381 0.19038,-0.2647 0.2793,-0.3515 0.0889,-0.087 0.187,-0.128 0.12305,-0.1075 a 0.50004997,0.50004997 0 0 0 0.002,0 c 0.23207,-0.075 0.40262,-0.1818 0.51953,-0.2988 0.0585,-0.059 0.10374,-0.1195 0.13476,-0.1738 0.0133,-0.023 0.0151,-0.033 0.0254,-0.059 0.004,-0.01 0.23606,-0.4709 -0.0234,-0.9453 0.0363,0.066 -0.0176,-0.081 -0.0117,-0.2285 0.006,-0.148 0.0443,-0.3189 0.082,-0.3985 a 0.50004997,0.50004997 0 0 0 0.002,0 c 0.0313,-0.067 0.0786,-0.1272 0.12891,-0.1875 l 0.59375,1.707 a 0.50004997,0.50004997 0 0 0 0.1543,0.2207 l 0.0566,0.045 a 0.50004997,0.50004997 0 0 0 0.18164,0.096 c 1.34145,0.3825 2.5876,1.0361 3.66211,1.918 4.30752,3.5516 4.89134,9.8689 1.30859,14.1367 -2.1835,2.6011 -5.47995,3.8772 -8.74414,3.5684 z" color="#000" font-family="sans-serif" font-weight="400" overflow="visible"></path><path fill="#3b3c3d" d="m 664.72946,1124.5883 c 2.84758,-0.073 5.60897,-1.3334 7.51954,-3.6094 3.58275,-4.2678 2.99893,-10.5851 -1.3086,-14.1367 -0.66255,-0.5438 -1.3967,-0.9875 -2.17187,-1.3477 0.60291,0.3184 1.17426,0.6949 1.70312,1.1289 4.30753,3.5516 4.89135,9.869 1.3086,14.1368 -1.91057,2.276 -4.67196,3.5363 -7.51953,3.6093 v 0 c -0.4068,0.01 -0.81659,0 -1.22461,-0.041 -0.79215,-0.075 -1.57224,-0.3027 -2.3418,-0.582 -0.002,0.019 -0.006,0.037 -0.008,0.057 0.92051,0.3679 1.86331,0.6541 2.81836,0.7441 v 0 c 0.40802,0.039 0.81781,0.051 1.2246,0.041 z m 0.26368,-18.8262 1.65039,-0.5644 a 0.50004997,0.50004997 0 0 1 0.20117,-0.025 c -0.091,-0.054 -0.1799,-0.1125 -0.27344,-0.1621 a 0.50004997,0.50004997 0 0 0 -0.39648,-0.031 l -0.88672,0.3027 c -0.0842,0.086 -0.1794,0.1968 -0.25781,0.3242 -0.0363,0.059 -0.0106,0.097 -0.0371,0.1563 z m 2.04687,-0.9785 a 0.50004997,0.50004997 0 0 1 -0.15429,-0.2207 l -0.59376,-1.707 c -0.0503,0.06 -0.0976,0.1205 -0.1289,0.1875 a 0.50004997,0.50004997 0 0 0 -0.002,0 c -0.0336,0.071 -0.0611,0.2202 -0.0723,0.3554 l 0.32812,0.9453 a 0.50004997,0.50004997 0 0 0 0.1543,0.2208 l 0.0566,0.045 a 0.50004997,0.50004997 0 0 0 0.18164,0.096 c 0.0783,0.022 0.15286,0.054 0.23047,0.078 z" opacity=".15"></path><path fill="#444166" style="line-height:normal;font-variant-ligatures:normal;font-variant-position:normal;font-variant-caps:normal;font-variant-numeric:normal;font-variant-alternates:normal;font-feature-settings:normal;text-indent:0;text-align:start;text-decoration-line:none;text-decoration-style:solid;text-decoration-color:#000;text-transform:none;text-orientation:mixed;shape-padding:0;isolation:auto;mix-blend-mode:normal" d="m 668.64215,1124.6013 a 0.50005,0.50005 0 0 0 0.47461,-0.4746 c 0.1759,-2.7067 -1.6117,-5.1587 -4.24218,-5.8203 a 0.50005,0.50005 0 1 0 -0.24414,0.9687 c 2.16869,0.5455 3.63329,2.5556 3.48828,4.7871 a 0.50005,0.50005 0 0 0 0.52343,0.5391 z" color="#000" font-family="sans-serif" font-weight="400" overflow="visible"></path><path fill="#444166" d="M670.08942 1120.077a.5.5 0 0 1 .5-.5.5.5 0 0 1 .5.5.5.5 0 0 1-.5.5.5.5 0 0 1-.5-.5zM668.83942 1118.077a.5.5 0 0 1 .5-.5.5.5 0 0 1 .5.5.5.5 0 0 1-.5.5.5.5 0 0 1-.5-.5zM666.58942 1117.077a.5.5 0 0 1 .5-.5.5.5 0 0 1 .5.5.5.5 0 0 1-.5.5.5.5 0 0 1-.5-.5zM671.08857 1118.222a.5.5 0 0 1 .5-.5.5.5 0 0 1 .5.5.5.5 0 0 1-.5.5.5.5 0 0 1-.5-.5zM668.58942 1116.077a.5.5 0 0 1 .5-.5.5.5 0 0 1 .5.5.5.5 0 0 1-.5.5.5.5 0 0 1-.5-.5z"></path><path fill="#fff" d="m 661.04978,1123.9241 c 0.2975,-2.4094 1.17787,-4.2061 2.51562,-5.5957 1.43129,-1.4867 3.34559,-2.562 5.44141,-3.4902 0.82834,-0.3668 1.39502,-1.0117 1.68945,-1.7637 0.29443,-0.752 0.33616,-1.6026 0.20703,-2.4551 -0.25826,-1.7051 -1.19183,-3.4511 -2.51367,-4.541 -0.31027,-0.2559 -0.64459,-0.4755 -0.99609,-0.6621 a 0.50004997,0.50004997 0 0 0 -0.10938,-0.043 c 0.2615,0.1544 0.51538,0.3225 0.75196,0.5176 1.32184,1.0899 2.25541,2.8359 2.51367,4.541 0.12913,0.8525 0.0874,1.7031 -0.20703,2.4551 -0.29443,0.752 -0.86112,1.3969 -1.68946,1.7637 -2.09582,0.9282 -4.01011,2.0035 -5.4414,3.4902 -1.35001,1.4023 -2.23599,3.2173 -2.52539,5.6602 0.11963,0.048 0.24291,0.078 0.36328,0.123 z" opacity=".15"></path></g></g></svg>